<svg id="Layer_1" data-name="Layer 1" xmlns="http://www.w3.org/2000/svg" viewBox="0 0 1860.61 338.44"><defs><style>.cls-1,.cls-2,.cls-3{fill:#97b7c0;}.cls-2,.cls-3{stroke:#97b7c0;stroke-miterlimit:10;}.cls-2{stroke-width:14.1px;}.cls-3{stroke-width:15px;}</style></defs><title>sharc_docs</title><path class="cls-1" d="M65.61,570.37q-16.19-6.2-22.72-12.74h.17Q30,544.39,30,526.48a42.11,42.11,0,0,1,7-23.66,63.16,63.16,0,0,1,18.16-18,91.35,91.35,0,0,1,25.21-11.44,101,101,0,0,1,28.14-4.05q43,0,73.84,34.6a16.75,16.75,0,0,1,3.61,10.84,17.37,17.37,0,0,1-17.9,17.9,14.52,14.52,0,0,1-9.38-3.1,90.16,90.16,0,0,1-7.49-6.71q-17.55-17.55-42.68-17.56-24.78,0-39.58,15.15A10.22,10.22,0,0,0,66.12,528a6.44,6.44,0,0,0,4.48,6.54l80.54,26.51q16.88,6.54,22.72,12.73h-.17q13.08,13.26,13.08,31.15a41.91,41.91,0,0,1-7,23.75,64.58,64.58,0,0,1-18.16,18,88.17,88.17,0,0,1-25.12,11.44,102.29,102.29,0,0,1-28.06,4q-43.36,0-73.83-34.25a18,18,0,0,1-3.79-11.18,17.36,17.36,0,0,1,17.9-17.9,14.43,14.43,0,0,1,9.64,3.35q4,3.36,7.23,6.46,17.55,17.55,42.85,17.55,24.62,0,39.59-15.49a10.29,10.29,0,0,0,2.58-7,6.77,6.77,0,0,0-4.65-6.72Z" transform="translate(-22.93 -330.78)"/><path class="cls-1" d="M108.46,669.15c-30.88,0-57.49-12.32-79.1-36.61l-.35-.43a25,25,0,0,1-5.22-15.44,24.42,24.42,0,0,1,25-24.95,21.38,21.38,0,0,1,14.2,5c2.72,2.32,5.25,4.57,7.52,6.72l.13.13C81,614,93.4,619.08,108.46,619.08c14.48,0,25.73-4.32,34.39-13.2a3.26,3.26,0,0,0,.73-2.29v-.07l-.1,0L63.09,577C51.25,572.42,43,567.73,37.9,562.62l-8.91-12a50.79,50.79,0,0,1,2.08-51.64,70.43,70.43,0,0,1,20.15-20,98.87,98.87,0,0,1,27.15-12.33,108.59,108.59,0,0,1,30.09-4.33c30.65,0,57.26,12.44,79.1,37l.22.26A23.64,23.64,0,0,1,193,514.78a24.4,24.4,0,0,1-25,25,21.47,21.47,0,0,1-13.78-4.64,97.65,97.65,0,0,1-8.07-7.24c-10.42-10.42-22.75-15.49-37.7-15.49-14.68,0-26,4.26-34.54,13a3.65,3.65,0,0,0-.75,2.61l80.52,26.5C166,559.29,174.32,564,179,569l8.77,11.89a51,51,0,0,1-2.09,51.75,71.7,71.7,0,0,1-20.11,19.95,95.28,95.28,0,0,1-27.12,12.36A109.47,109.47,0,0,1,108.46,669.15ZM40.1,623.39c19,21.3,41.4,31.66,68.36,31.66a95.59,95.59,0,0,0,26.13-3.69,81.25,81.25,0,0,0,23.13-10.52,57.85,57.85,0,0,0,16.21-16A34.73,34.73,0,0,0,179.72,605c0-10.09-3.61-18.66-11.05-26.2L167,577.1c-2.84-2.29-8.2-5.47-18.27-9.39L68.07,541.15a13.44,13.44,0,0,1-9-13.12,17.2,17.2,0,0,1,4.81-12.56c11.15-11.4,26.16-17.21,44.57-17.21,18.61,0,34.65,6.61,47.67,19.62a84.85,84.85,0,0,0,6.9,6.2,7.57,7.57,0,0,0,5,1.55,10.32,10.32,0,0,0,10.85-10.85,9.7,9.7,0,0,0-2-6.3c-19.29-21.59-41.67-32.09-68.44-32.09a94.71,94.71,0,0,0-26.19,3.77A85,85,0,0,0,59,490.71a56.36,56.36,0,0,0-16.16,16A34.83,34.83,0,0,0,37,526.48c0,10.1,3.62,18.67,11,26.2L49.41,554c3,2.46,8.5,5.83,18.57,9.7l80.66,26.62a13.79,13.79,0,0,1,9,13.24,17.45,17.45,0,0,1-4.35,11.72l-.22.23c-11.31,11.71-26.33,17.64-44.65,17.64-18.69,0-34.76-6.58-47.77-19.55-2.06-2-4.37-4-6.87-6.13a7.4,7.4,0,0,0-5.08-1.68,10.34,10.34,0,0,0-10.85,10.85A10.85,10.85,0,0,0,40.1,623.39Zm103.68-19.75ZM72.84,527.86Z" transform="translate(-22.93 -330.78)"/><path class="cls-1" d="M356.46,658.72V559.53a51.28,51.28,0,0,0-4.3-20.83A55,55,0,0,0,323.42,510a51.24,51.24,0,0,0-20.82-4.3,52,52,0,0,0-20.91,4.21,54.76,54.76,0,0,0-28.75,28.83,52.22,52.22,0,0,0-4.21,20.83v99.19m-36,0,21.55-153.41c0-5-2.84-5.59.66-9.09s-4.5-20.27.44-20.27,4.4-4.86,7.9-1.36a18.14,18.14,0,0,1,5.42,12.83h0q22.89-17.73,53.87-17.73a85.4,85.4,0,0,1,34.33,7.05,94.41,94.41,0,0,1,28.66,19.19,90.71,90.71,0,0,1,19.62,28.57,86.22,86.22,0,0,1,7.22,35v99.19" transform="translate(-22.93 -330.78)"/><path class="cls-1" d="M219.72,638.58,209,638.9l18.27-140.65a6.63,6.63,0,0,0-.37-1.6c-.94-3.06-1.39-6.69,2-10.77a53.47,53.47,0,0,0-1-5.77c-1.2-5.82-2.22-10.85.95-14.75a8.46,8.46,0,0,1,6.14-3.07h0c4.28-3.75,9.15-3.5,13.34.69a25.66,25.66,0,0,1,4.68,6.34c14.55-8.84,31.2-13.31,49.63-13.31a92.75,92.75,0,0,1,37.14,7.64,101.67,101.67,0,0,1,30.78,20.62A98,98,0,0,1,391.66,515a93.46,93.46,0,0,1,7.82,37.86l.07,91.25H385.39V552.9a79.48,79.48,0,0,0-6.64-32.19,83.88,83.88,0,0,0-18.1-26.37,87.66,87.66,0,0,0-26.53-17.76,78.81,78.81,0,0,0-31.52-6.47c-19,0-35.63,5.47-49.56,16.25l-11,8.55-.07-3.18a9.66,9.66,0,0,1-1.22,2,19.11,19.11,0,0,1,.65,5l-.09,1.08Zm143.79,5.57H349.42V552.9a44.5,44.5,0,0,0-3.71-18,47.9,47.9,0,0,0-25.12-25.12,44.57,44.57,0,0,0-18-3.71,45.07,45.07,0,0,0-18.11,3.64,47.71,47.71,0,0,0-25.07,25.14,45.33,45.33,0,0,0-3.64,18l-6.86,84.82-5.58-7.34-1.66-77.48a59.39,59.39,0,0,1,4.79-23.61,61.81,61.81,0,0,1,32.41-32.51A59.29,59.29,0,0,1,302.6,492a58.52,58.52,0,0,1,23.65,4.9,62.06,62.06,0,0,1,32.37,32.36,58.52,58.52,0,0,1,4.89,23.66Z" transform="translate(-22.93 -330.78)"/><path class="cls-1" d="M576.24,644.2v-3.44a98.68,98.68,0,0,1-28,15.83,93.76,93.76,0,0,1-32.36,5.51q-39.93,0-68.15-28.22t-28.23-68.16q0-39.91,28.23-68.15t68.15-28.23q39.58,0,68.16,28.23,28.21,28.23,28.22,68.15V644.2a17.92,17.92,0,0,1-17.9,17.9,17.44,17.44,0,0,1-12.82-5.25A17.23,17.23,0,0,1,576.24,644.2ZM515.83,505.31a58.63,58.63,0,0,0-23.75,4.82,60.47,60.47,0,0,0-31.92,32.19,60.15,60.15,0,0,0,0,46.81A61.5,61.5,0,0,0,473,608.32a60.86,60.86,0,0,0,19.1,13,60.5,60.5,0,0,0,47.33,0,61.19,61.19,0,0,0,19.19-13.08A62.16,62.16,0,0,0,571.51,589a59.85,59.85,0,0,0,0-46.64,62.28,62.28,0,0,0-12.91-19.19,61.52,61.52,0,0,0-19.19-13.08A58.2,58.2,0,0,0,515.83,505.31Z" transform="translate(-22.93 -330.78)"/><path class="cls-1" d="M594.31,669.15a24.3,24.3,0,0,1-17.8-7.32,24.6,24.6,0,0,1-5.68-8.56,105.5,105.5,0,0,1-20.23,10,101.54,101.54,0,0,1-34.77,5.93c-28.43,0-53-10.19-73.14-30.29s-30.28-44.7-30.28-73.14,10.19-53,30.28-73.13,44.71-30.3,73.14-30.3c28.19,0,52.79,10.19,73.11,30.26,20.13,20.14,30.32,44.74,30.32,73.17V644.2a25,25,0,0,1-25,24.95Zm-11-43.06V644.2a10.23,10.23,0,0,0,3.19,7.67,10.42,10.42,0,0,0,7.83,3.18,10.86,10.86,0,0,0,10.85-10.85V565.72c0-24.9-8.55-45.56-26.16-63.17-17.81-17.59-38.48-26.16-63.17-26.16-24.9,0-45.56,8.56-63.17,26.16s-26.16,38.27-26.16,63.17,8.56,45.57,26.16,63.17,38.27,26.16,63.17,26.16A87.41,87.41,0,0,0,545.78,650a91.93,91.93,0,0,0,26.06-14.71Zm-67.46,7.09a65.82,65.82,0,0,1-26.57-5.41,67.45,67.45,0,0,1-35.58-35.86,67.36,67.36,0,0,1,0-52.38,67.54,67.54,0,0,1,35.58-35.86,67.56,67.56,0,0,1,53,0,68.65,68.65,0,0,1,21.37,14.58A69.5,69.5,0,0,1,578,539.6a66.9,66.9,0,0,1,0,52.24,69.5,69.5,0,0,1-14.37,21.35,68.54,68.54,0,0,1-21.37,14.58A65.47,65.47,0,0,1,515.83,633.18Zm0-120.82a51.93,51.93,0,0,0-20.92,4.23A54.21,54.21,0,0,0,478,528.09a54.89,54.89,0,0,0-11.36,17,53.18,53.18,0,0,0,0,41.24,54.93,54.93,0,0,0,11.36,17,54,54,0,0,0,16.92,11.49,53.45,53.45,0,0,0,41.68,0,54.41,54.41,0,0,0,17-11.58,55.12,55.12,0,0,0,11.45-17,52.81,52.81,0,0,0,0-41,55.36,55.36,0,0,0-11.45-17,54.64,54.64,0,0,0-17-11.58A51.58,51.58,0,0,0,515.83,512.36Z" transform="translate(-22.93 -330.78)"/><path class="cls-1" d="M675,487.24v3.45a98.84,98.84,0,0,1,28.05-15.84,94,94,0,0,1,32.36-5.51,137.91,137.91,0,0,1,16.26,1,71.09,71.09,0,0,1,16,3.7,34,34,0,0,1,12.13,7.31,16,16,0,0,1,4.82,12.05,17.11,17.11,0,0,1-1.46,7.05,20,20,0,0,1-3.87,5.77,16.91,16.91,0,0,1-5.68,3.87,18,18,0,0,1-7.06,1.38,19.22,19.22,0,0,1-7.57-1.89,63.34,63.34,0,0,0-23.58-4.31,59,59,0,0,0-23.58,4.74,60.17,60.17,0,0,0-32.1,32.09A59.23,59.23,0,0,0,675,565.72V644.2a17.92,17.92,0,0,1-17.9,17.9,17.44,17.44,0,0,1-12.82-5.25,17.23,17.23,0,0,1-5.25-12.65v-157a17.25,17.25,0,0,1,5.25-12.65,17.44,17.44,0,0,1,12.82-5.25,17.92,17.92,0,0,1,17.9,17.9Z" transform="translate(-22.93 -330.78)"/><path class="cls-1" d="M657.13,669.15A25,25,0,0,1,632,644.2v-157a25.06,25.06,0,0,1,42.76-17.63,24.75,24.75,0,0,1,5.67,8.57,104.91,104.91,0,0,1,20.23-9.95,101.39,101.39,0,0,1,34.77-5.94,145.54,145.54,0,0,1,17.09,1.09,78.75,78.75,0,0,1,17.59,4.07,41.13,41.13,0,0,1,14.61,8.87,23.13,23.13,0,0,1,7,17.12,24.11,24.11,0,0,1-2.08,9.93,26.75,26.75,0,0,1-5.24,7.79,24.14,24.14,0,0,1-8,5.47,25,25,0,0,1-9.79,1.93,25.62,25.62,0,0,1-10.28-2.44,56.86,56.86,0,0,0-20.87-3.76,52.38,52.38,0,0,0-20.8,4.16,53.23,53.23,0,0,0-28.4,28.41,52.33,52.33,0,0,0-4.16,20.79V644.2a25,25,0,0,1-25,24.95Zm0-192.76a10.47,10.47,0,0,0-7.84,3.19,10.23,10.23,0,0,0-3.18,7.66v157a10.25,10.25,0,0,0,3.18,7.67,10.46,10.46,0,0,0,7.84,3.18A10.86,10.86,0,0,0,668,644.2V565.72a66.35,66.35,0,0,1,5.31-26.36,67.26,67.26,0,0,1,35.79-35.79,66.35,66.35,0,0,1,26.36-5.31,70.8,70.8,0,0,1,26.18,4.8l.24.11a12.39,12.39,0,0,0,4.73,1.29,11,11,0,0,0,4.32-.82,10,10,0,0,0,3.35-2.28,12.63,12.63,0,0,0,2.5-3.74,10.08,10.08,0,0,0,.85-4.18,9,9,0,0,0-2.66-7,27,27,0,0,0-9.66-5.77,64.44,64.44,0,0,0-14.42-3.32,130.29,130.29,0,0,0-15.43-1,87.21,87.21,0,0,0-30,5.09,91.93,91.93,0,0,0-26.06,14.71L668,505.35V487.24a10.87,10.87,0,0,0-10.85-10.85Z" transform="translate(-22.93 -330.78)"/><path class="cls-1" d="M951.6,607.54a17.37,17.37,0,0,1,17.9,17.9,18.13,18.13,0,0,1-5.68,13.25Q937.15,662.1,901,662.1q-39.93,0-68.15-28.22t-28.23-68.16q0-39.91,28.23-68.15T901,469.34q36.32,0,62.82,23.41a17.48,17.48,0,0,1,6.2,13.6,17.67,17.67,0,0,1-5.08,12.9,17.21,17.21,0,0,1-12.82,5.17,18.24,18.24,0,0,1-11.7-4.13A66.27,66.27,0,0,0,922,509.1a57,57,0,0,0-21-3.79,59,59,0,0,0-23.57,4.74A61.84,61.84,0,0,0,858.15,523a60.06,60.06,0,0,0-13,19.19,61,61,0,0,0,0,47.16,60,60,0,0,0,13,19.19,61.87,61.87,0,0,0,19.28,12.91A59,59,0,0,0,901,626.13a58,58,0,0,0,21-3.7,62.2,62.2,0,0,0,18.24-11.1A19.31,19.31,0,0,1,951.6,607.54Z" transform="translate(-22.93 -330.78)"/><path class="cls-1" d="M901,669.15c-28.43,0-53-10.19-73.14-30.29s-30.28-44.7-30.28-73.14,10.19-53,30.29-73.13,44.7-30.3,73.13-30.3c25.87,0,48.57,8.47,67.49,25.18A25.5,25.5,0,0,1,970,524.2a24.14,24.14,0,0,1-17.85,7.27A25.2,25.2,0,0,1,936,525.79l-.14-.11a59.25,59.25,0,0,0-16.45-10,50.16,50.16,0,0,0-18.42-3.3,52.33,52.33,0,0,0-20.79,4.16A55.2,55.2,0,0,0,863.11,528a53.35,53.35,0,0,0-11.48,17,54.06,54.06,0,0,0,0,41.59,53.19,53.19,0,0,0,11.48,17,55,55,0,0,0,17.1,11.44A52.3,52.3,0,0,0,901,619.08a51.4,51.4,0,0,0,18.47-3.23A55.34,55.34,0,0,0,935.65,606l.36-.3a26.27,26.27,0,0,1,15.41-5.19h.18a24.4,24.4,0,0,1,24.95,25,25.09,25.09,0,0,1-7.74,18.24l-.34.31C949.45,660.69,926.75,669.15,901,669.15Zm0-192.76c-24.9,0-45.56,8.56-63.17,26.16s-26.16,38.27-26.16,63.17,8.56,45.57,26.16,63.17S876.1,655.05,901,655.05c22.45,0,41.42-7,58-21.49a11.09,11.09,0,0,0,3.46-8.12,10.32,10.32,0,0,0-10.76-10.85,12.29,12.29,0,0,0-7.05,2.26A69.34,69.34,0,0,1,924.53,629,65.29,65.29,0,0,1,901,633.18a66.35,66.35,0,0,1-26.36-5.31,68.89,68.89,0,0,1-21.45-14.37,67.24,67.24,0,0,1-14.51-21.42,68.08,68.08,0,0,1,0-52.72,67.46,67.46,0,0,1,14.51-21.42,69.24,69.24,0,0,1,21.45-14.37A66.39,66.39,0,0,1,901,498.26a64.11,64.11,0,0,1,23.57,4.28,73.3,73.3,0,0,1,20.31,12.29,11.14,11.14,0,0,0,7.24,2.54,10.2,10.2,0,0,0,7.79-3.06,10.63,10.63,0,0,0,3.06-8,10.51,10.51,0,0,0-3.83-8.33C942.66,483.47,923.64,476.39,901,476.39Z" transform="translate(-22.93 -330.78)"/><path class="cls-2" d="M373.4,379.5" transform="translate(-22.93 -330.78)"/><path class="cls-1" d="M213,550.49C212.76,341,388.5,338,388.5,338V344s-143,19.64-139.77,206.45c.28,16.45,0,90.46,0,90.46h-36S213,567,213,550.49Z" transform="translate(-22.93 -330.78)"/><path class="cls-1" d="M255.75,644.15H205.69l0-3.22c0-.77.22-74.18.21-90.44C205.81,439,255.37,385.18,297,359.65c45-27.64,89.53-28.71,91.41-28.75l7.17-.12v19.41l-6.09.83c-.33.05-34.75,5.15-68.18,32.13-44.74,36.1-66.78,92.36-65.5,167.22.27,16.34,0,87.46,0,90.61ZM219.83,633.9H241.7c.06-19.39.21-70,0-83.29C240,451.24,279.54,398.48,313,371.7a176.4,176.4,0,0,1,21.85-14.92,179.93,179.93,0,0,0-31,15.2c-55.7,34.45-83.9,94.51-83.82,178.5C220,563.81,219.88,614.45,219.83,633.9Z" transform="translate(-22.93 -330.78)"/><circle class="cls-1" cx="207.82" cy="313.37" r="25.07"/><circle class="cls-1" cx="372.61" cy="9.7" r="9.7"/><circle class="cls-1" cx="351.55" cy="313.37" r="25.07"/><text x="-22.93" y="-330.78"></text><path class="cls-3" d="M1191.6,470.68q33.81,0,59.64,20.9V406.79a17.15,17.15,0,0,1,17.67-17.68,17.55,17.55,0,0,1,12.66,5,16.88,16.88,0,0,1,5.18,12.66v159q0,39.76-27.86,67.29Q1230.67,661,1191.6,661q-39.43,0-67.29-27.87t-27.87-67.29q0-39.42,27.87-67.29T1191.6,470.68Zm59.64,95.15a57.39,57.39,0,0,0-4.67-23,61.5,61.5,0,0,0-12.75-18.95A60.45,60.45,0,0,0,1214.88,511a59.72,59.72,0,0,0-46.73,0,59.7,59.7,0,0,0-31.52,31.77,59.4,59.4,0,0,0,0,46.22,59.67,59.67,0,0,0,31.52,31.78,59.84,59.84,0,0,0,46.73,0,60.48,60.48,0,0,0,18.94-12.92,61.34,61.34,0,0,0,12.75-18.94A57.43,57.43,0,0,0,1251.24,565.83Z" transform="translate(-22.93 -330.78)"/><path class="cls-3" d="M1504.25,565.83q0,39.76-27.86,67.29Q1448.17,661,1409.1,661q-39.43,0-67.29-27.87t-27.87-67.29q0-39.42,27.87-67.29t67.29-27.86q39.08,0,67.29,27.86a93.47,93.47,0,0,1,20.81,30.76A97.69,97.69,0,0,1,1504.25,565.83Zm-95.15-59.64a57.87,57.87,0,0,0-23.45,4.76,59.7,59.7,0,0,0-31.52,31.77,59.4,59.4,0,0,0,0,46.22,59.67,59.67,0,0,0,31.52,31.78,59.84,59.84,0,0,0,46.73,0,60.48,60.48,0,0,0,18.94-12.92,61.34,61.34,0,0,0,12.75-18.94,59.1,59.1,0,0,0,0-46.05,61.5,61.5,0,0,0-12.75-18.95A60.45,60.45,0,0,0,1432.38,511,57.51,57.51,0,0,0,1409.1,506.19Z" transform="translate(-22.93 -330.78)"/><path class="cls-3" d="M1676.21,607.12a17.17,17.17,0,0,1,17.68,17.67,17.93,17.93,0,0,1-5.61,13.09q-26.34,23.11-62,23.11-39.43,0-67.29-27.87t-27.87-67.29q0-39.42,27.87-67.29t67.29-27.86q35.85,0,62,23.11a17.24,17.24,0,0,1,6.12,13.42,17.45,17.45,0,0,1-5,12.74,17,17,0,0,1-12.66,5.1,18,18,0,0,1-11.55-4.08,65.25,65.25,0,0,0-18.18-11,56.3,56.3,0,0,0-20.73-3.74,58.43,58.43,0,0,0-23.28,4.67,61,61,0,0,0-19,12.75,59.14,59.14,0,0,0-12.83,18.94,60.24,60.24,0,0,0,0,46.56A59.18,59.18,0,0,0,1584,608.06a60.85,60.85,0,0,0,19,12.74,58.25,58.25,0,0,0,23.28,4.67,57.32,57.32,0,0,0,20.73-3.65,61.32,61.32,0,0,0,18-11A19.07,19.07,0,0,1,1676.21,607.12Z" transform="translate(-22.93 -330.78)"/><path class="cls-3" d="M1756.42,570.42q-16-6.12-22.43-12.57h.17q-12.92-13.1-12.92-30.76a41.52,41.52,0,0,1,6.89-23.36A62.16,62.16,0,0,1,1746.05,486a89.83,89.83,0,0,1,24.9-11.3,99.88,99.88,0,0,1,27.78-4q42.48,0,72.89,34.15a16.52,16.52,0,0,1,3.57,10.71,17.15,17.15,0,0,1-17.67,17.67,14.35,14.35,0,0,1-9.26-3.06,89.69,89.69,0,0,1-7.39-6.63q-17.34-17.32-42.14-17.33-24.46,0-39.08,14.95a10.1,10.1,0,0,0-2.72,7.48,6.37,6.37,0,0,0,4.41,6.46l79.53,26.16q16.65,6.46,22.43,12.58h-.17Q1876,586.9,1876,604.57a41.38,41.38,0,0,1-6.88,23.45,63.74,63.74,0,0,1-17.93,17.76,86.69,86.69,0,0,1-24.81,11.3,100.75,100.75,0,0,1-27.69,3.91q-42.82,0-72.9-33.82a17.81,17.81,0,0,1-3.74-11,17.15,17.15,0,0,1,17.67-17.67,14.23,14.23,0,0,1,9.52,3.31q3.9,3.32,7.14,6.37,17.32,17.34,42.31,17.33,24.3,0,39.08-15.29a10.16,10.16,0,0,0,2.55-7,6.67,6.67,0,0,0-4.59-6.62Z" transform="translate(-22.93 -330.78)"/></svg>